<svg width="401" height="121" viewBox="0 0 401 121" fill="none" xmlns="http://www.w3.org/2000/svg">
<g clip-path="url(#clip0_68_10)">
<path d="M26.8772 78.1406C29.7251 76.8564 32.981 76.2143 36.6599 76.2143C40.8902 76.2143 44.5011 76.9848 47.5001 78.5183C50.4991 80.0518 52.5765 82.1065 53.7322 84.675L70.5025 83.4663C69.0445 77.1208 65.3128 72.3768 59.3223 69.2267C53.3319 66.0766 45.8533 64.5054 36.8865 64.5054C29.9895 64.5054 23.8405 65.5478 18.4543 67.6403C13.0682 69.7328 8.80014 72.8905 5.65006 77.1208C2.50753 81.3511 0.928711 86.5106 0.928711 92.6068C0.928711 98.703 2.43954 103.878 5.4612 108.131C8.48286 112.384 12.5772 115.549 17.7367 117.611C22.8962 119.673 28.6525 119.953 34.9979 119.953C38.6239 119.953 41.9855 120.315 45.0827 119.537C48.1799 118.759 50.8994 117.672 53.2412 116.289C55.583 114.907 57.4338 113.305 58.7935 111.492L60.6821 119.802H69.7471V88.5276H31.9763V98.2724H53.8078C53.3545 100.237 52.3347 102.05 50.7484 103.711C49.162 105.373 47.145 106.673 44.705 107.602C42.265 108.531 39.5833 108.999 36.6599 108.999C32.9357 108.999 29.6572 108.38 26.8395 107.149C24.0218 105.917 21.8008 104.051 20.1918 101.558C18.5828 99.0656 17.7745 96.0817 17.7745 92.6068C17.7745 89.1319 18.5828 86.2991 20.1918 83.8062C21.8008 81.3134 24.0293 79.4248 26.8772 78.1406Z" fill="black"/>
<path d="M75.2615 119.802H131.691V107.488H91.5785V96.837H128.972V86.4878H91.5785V77.725H131.691V63.9009H75.2615V119.802Z" fill="black"/>
<path d="M198.296 83.0129C198.296 79.8401 197.646 74.726 196.34 72.2104C195.033 69.6949 192.917 67.678 189.994 66.1671C187.063 64.6563 183.316 63.9009 178.738 63.9009H136.45V119.802H152.389V99.632H167.717L180.582 119.802H197.926L184.525 99.1939C188.347 98.5518 191.361 97.1845 193.537 95.0618C196.71 91.9646 198.296 87.9458 198.296 83.0129ZM152.397 75.3832H175.422C177.635 75.3832 179.26 75.8364 180.294 76.7429C181.329 77.6494 181.843 79.7419 181.843 81.5021C181.843 83.3679 181.352 86.2007 180.37 86.9788C179.388 87.7569 177.734 88.1497 175.422 88.1497H152.397V75.3832Z" fill="black"/>
<path d="M247.919 95.7794C247.919 99.7605 246.711 102.903 244.301 105.222C241.884 107.541 238.363 108.697 233.74 108.697C229.117 108.697 225.657 107.541 223.217 105.222C220.777 102.903 219.561 99.7605 219.561 95.7794V63.9009H203.592V96.006C203.592 101.498 204.725 106.091 206.991 109.792C209.257 113.494 212.626 116.251 217.106 118.064C221.586 119.877 227.108 120.784 233.672 120.784C243.621 120.784 251.16 118.721 256.289 114.589C261.411 110.465 263.979 104.263 263.979 96.006V63.9009H247.934V95.7794H247.919Z" fill="black"/>
<path d="M330.97 91.7681C327.85 89.3356 324.156 87.7417 319.903 86.9863C315.65 86.2233 310.294 85.6945 303.85 85.3924C300.073 85.1431 297.15 84.9013 295.087 84.6671C293.025 84.4405 291.333 83.9948 290.026 83.3376C288.719 82.6804 288.062 81.721 288.062 80.4519C288.062 78.6314 289.309 77.2867 291.801 76.4256C294.294 75.5644 297.656 75.1338 301.886 75.1338C306.116 75.1338 309.35 75.7532 312.046 76.9921C314.743 78.231 316.617 80.0213 317.674 82.348L334.52 80.4519C332.103 75.0356 328.303 71.0243 323.113 68.4106C317.924 65.8044 311.08 64.4976 302.566 64.4976C296.621 64.4976 291.386 65.0566 286.853 66.167C282.321 67.285 278.695 69.1056 275.975 71.6362C273.256 74.1669 271.896 77.5134 271.896 81.6606C271.896 86.2158 273.354 89.6453 276.278 91.9494C279.201 94.2534 282.699 95.734 286.778 96.3912C290.857 97.0484 296.047 97.5545 302.339 97.9096C306.215 98.0607 309.289 98.2646 311.555 98.5139C313.822 98.7708 315.695 99.2844 317.183 100.07C318.672 100.856 319.412 102.079 319.412 103.756C319.412 105.275 318.694 106.476 317.259 107.367C315.824 108.251 313.988 108.833 311.744 109.112C309.501 109.392 306.97 109.528 304.152 109.528C299.016 109.528 294.914 108.818 291.839 107.405C288.765 105.985 286.725 103.908 285.72 101.181L268.875 103.228C271.194 108.795 275.296 113.048 281.188 115.987C287.08 118.925 294.883 120.391 304.606 120.391C310.898 120.391 316.352 119.824 320.96 118.684C325.568 117.543 329.172 115.669 331.763 113.063C334.354 110.457 335.653 107.05 335.653 102.85C335.653 97.8869 334.09 94.1929 330.97 91.7605V91.7681Z" fill="black"/>
<path d="M339.884 63.9009V77.725H361.942V119.802H378.108V77.725H400.241V63.9009H339.884Z" fill="black"/>
<path d="M377.707 55.5684V63.7797H362.599V55.5684H361.843V63.7797L333.893 63.7873V55.5684H333.138V63.7797H317.274V55.5684H316.518V63.7797L288.568 63.7873V55.5684H287.813V63.7797H271.949V55.5684H271.194V63.7797L264.395 63.7873V55.5684H263.639V63.7797H248.531V55.5684H247.776V63.7797L219.825 63.7873V55.5684H219.07V63.7797H203.962V55.5684H203.206V63.7797L198.674 63.7873V55.5684H197.918V63.7797H182.055V55.5684H181.299V63.7797L152.593 63.7873V55.5684H151.838V63.7797H136.73V55.5684H135.974V63.7797L132.197 63.7873V55.5684H131.442V63.7797H115.578V55.5684H114.823V63.7797L92.1601 63.7873V55.5684H91.4047V63.7797H75.541V55.5684H74.7856V63.7797L70.2531 63.7873V55.5684H69.4977V63.7797H53.634V55.5684H52.8785V63.7797L18.1294 63.7873V55.5684H17.374V63.7797H1.5103V55.5684H0.754883V120.436H378.463V55.5684H377.707ZM363.218 77.7474L370.153 71.6436L377.088 77.7474H363.226H363.218ZM377.088 78.5028L370.153 84.6141L363.218 78.5028H377.095H377.088ZM362.599 77.2941V64.9884L369.579 71.1375L362.599 77.2866V77.2941ZM363.233 64.5427H377.073L370.153 70.6389L363.233 64.5427ZM369.579 85.1202L362.599 91.2693V78.9636L369.579 85.1127V85.1202ZM363.218 91.7301L370.153 85.6263L377.088 91.7301H363.226H363.218ZM377.073 92.4855L370.153 98.5817L363.233 92.4855H377.073ZM369.579 99.0878L362.599 105.237V92.9312L369.579 99.0803V99.0878ZM369.579 113.063L362.599 119.212V106.906L369.579 113.055V113.063ZM363.218 106.453H377.08L370.145 112.557L363.211 106.453H363.218ZM363.218 105.698L370.153 99.5864L377.088 105.698H363.211H363.218ZM370.153 113.569L377.088 119.673H363.226L370.161 113.569H370.153ZM370.727 113.063L377.707 106.914V119.22L370.727 113.071V113.063ZM370.727 99.0878L377.707 92.9388V105.244L370.727 99.0954V99.0878ZM370.727 85.1202L377.707 78.9711V91.2768L370.727 85.1278V85.1202ZM370.727 71.1375L377.707 64.9884V77.2941L370.727 71.145V71.1375ZM361.843 64.5427V91.7301H333.893V64.5427H361.843ZM332.465 92.4855L325.206 98.5893L317.946 92.4855H332.465ZM317.931 91.7301L325.206 85.6112L332.48 91.7301H317.931ZM325.795 85.1202L333.138 78.9409V91.292L325.795 85.1127V85.1202ZM325.795 71.1375L333.138 64.9582V77.3092L325.795 71.1299V71.1375ZM332.48 77.7474H317.931L325.206 71.6285L332.48 77.7474ZM325.206 70.6464L317.946 64.5427H332.465L325.206 70.6464ZM324.617 71.1375L317.274 77.3168V64.9657L324.617 71.145V71.1375ZM332.488 78.5028L325.206 84.6216L317.924 78.5028H332.48H332.488ZM324.617 85.1202L317.274 91.2995V78.9485L324.617 85.1278V85.1202ZM324.617 99.0878L317.274 105.267V92.9161L324.617 99.0954V99.0878ZM324.617 113.063L317.274 119.242V106.891L324.617 113.071V113.063ZM317.931 106.453H332.48L325.206 112.572L317.931 106.453ZM333.138 106.891V119.242L325.795 113.063L333.138 106.884V106.891ZM317.924 105.698L325.206 99.5789L332.488 105.698H317.931H317.924ZM325.206 113.562L332.48 119.68H317.931L325.206 113.562ZM325.795 99.0878L333.138 92.9085V105.26L325.795 99.0803V99.0878ZM316.518 64.5427V91.7301H288.568V64.5427H316.518ZM287.14 92.4855L279.881 98.5893L272.621 92.4855H287.14ZM272.606 91.7301L279.881 85.6112L287.155 91.7301H272.606ZM280.47 85.1202L287.813 78.9409V91.292L280.47 85.1127V85.1202ZM280.47 71.1375L287.813 64.9582V77.3092L280.47 71.1299V71.1375ZM287.155 77.7474H272.606L279.881 71.6285L287.155 77.7474ZM279.881 70.6464L272.621 64.5427H287.14L279.881 70.6464ZM279.292 71.1375L271.949 77.3168V64.9657L279.292 71.145V71.1375ZM287.163 78.5028L279.881 84.6216L272.599 78.5028H287.155H287.163ZM279.292 85.1202L271.949 91.2995V78.9485L279.292 85.1278V85.1202ZM279.292 99.0878L271.949 105.267V92.9161L279.292 99.0954V99.0878ZM279.292 113.063L271.949 119.242V106.891L279.292 113.071V113.063ZM272.606 106.453H287.155L279.881 112.572L272.606 106.453ZM287.813 106.891V119.242L280.47 113.063L287.813 106.884V106.891ZM272.599 105.698L279.881 99.5789L287.163 105.698H272.606H272.599ZM279.881 113.562L287.155 119.68H272.606L279.881 113.562ZM280.47 99.0878L287.813 92.9085V105.26L280.47 99.0803V99.0878ZM271.194 64.5427V91.7301H264.395V64.5427H271.194ZM263.005 92.4855L256.085 98.5817L249.166 92.4855H263.005ZM249.151 91.7301L256.085 85.6263L263.02 91.7301H249.158H249.151ZM256.659 85.1202L263.639 78.9711V91.2768L256.659 85.1278V85.1202ZM256.659 71.1375L263.639 64.9884V77.2941L256.659 71.145V71.1375ZM263.02 77.7474H249.158L256.093 71.6436L263.028 77.7474H263.02ZM256.085 70.6389L249.166 64.5427H263.005L256.085 70.6389ZM255.511 71.1375L248.531 77.2866V64.9808L255.511 71.1299V71.1375ZM263.02 78.5028L256.085 84.6141L249.151 78.5028H263.028H263.02ZM255.511 85.1202L248.531 91.2693V78.9636L255.511 85.1127V85.1202ZM255.511 99.0878L248.531 105.237V92.9312L255.511 99.0803V99.0878ZM255.511 113.063L248.531 119.212V106.906L255.511 113.055V113.063ZM249.151 106.453H263.012L256.078 112.557L249.143 106.453H249.151ZM263.639 106.914V119.22L256.659 113.071L263.639 106.921V106.914ZM249.151 105.698L256.085 99.5864L263.02 105.698H249.143H249.151ZM256.085 113.569L263.02 119.673H249.158L256.093 113.569H256.085ZM256.659 99.0878L263.639 92.9388V105.244L256.659 99.0954V99.0878ZM247.776 64.5427V91.7301H219.825V64.5427H247.776ZM218.435 92.4855L211.516 98.5817L204.596 92.4855H218.435ZM204.581 91.7301L211.516 85.6263L218.45 91.7301H204.589H204.581ZM212.09 85.1202L219.07 78.9711V91.2768L212.09 85.1278V85.1202ZM212.09 71.1375L219.07 64.9884V77.2941L212.09 71.145V71.1375ZM218.45 77.7474H204.589L211.523 71.6436L218.458 77.7474H218.45ZM211.516 70.6389L204.596 64.5427H218.435L211.516 70.6389ZM210.942 71.1375L203.962 77.2866V64.9808L210.942 71.1299V71.1375ZM218.45 78.5028L211.516 84.6141L204.581 78.5028H218.458H218.45ZM210.942 85.1202L203.962 91.2693V78.9636L210.942 85.1127V85.1202ZM210.942 99.0878L203.962 105.237V92.9312L210.942 99.0803V99.0878ZM210.942 113.063L203.962 119.212V106.906L210.942 113.055V113.063ZM204.581 106.453H218.443L211.508 112.557L204.573 106.453H204.581ZM219.07 106.914V119.22L212.09 113.071L219.07 106.921V106.914ZM204.581 105.698L211.516 99.5864L218.45 105.698H204.573H204.581ZM211.516 113.569L218.45 119.673H204.589L211.523 113.569H211.516ZM212.09 99.0878L219.07 92.9388V105.244L212.09 99.0954V99.0878ZM203.206 64.5427V91.7301H198.674V64.5427H203.206ZM197.246 92.4855L189.986 98.5893L182.727 92.4855H197.246ZM182.712 91.7301L189.986 85.6112L197.261 91.7301H182.712ZM190.576 85.1202L197.918 78.9409V91.292L190.576 85.1127V85.1202ZM190.576 71.1375L197.918 64.9582V77.3092L190.576 71.1299V71.1375ZM197.261 77.7474H182.712L189.986 71.6285L197.261 77.7474ZM189.986 70.6464L182.727 64.5427H197.246L189.986 70.6464ZM189.397 71.1375L182.055 77.3168V64.9657L189.397 71.145V71.1375ZM197.269 78.5028L189.986 84.6216L182.704 78.5028H197.261H197.269ZM189.397 85.1202L182.055 91.2995V78.9485L189.397 85.1278V85.1202ZM189.397 99.0878L182.055 105.267V92.9161L189.397 99.0954V99.0878ZM189.397 113.063L182.055 119.242V106.891L189.397 113.071V113.063ZM182.712 106.453H197.261L189.986 112.572L182.712 106.453ZM197.918 106.891V119.242L190.576 113.063L197.918 106.884V106.891ZM182.704 105.698L189.986 99.5789L197.269 105.698H182.712H182.704ZM189.986 113.562L197.261 119.68H182.712L189.986 113.562ZM190.576 99.0878L197.918 92.9085V105.26L190.576 99.0803V99.0878ZM181.299 64.5427V91.7301H152.593V64.5427H181.299ZM151.203 92.4855L144.284 98.5817L137.364 92.4855H151.203ZM137.349 91.7301L144.284 85.6263L151.219 91.7301H137.357H137.349ZM144.858 85.1202L151.838 78.9711V91.2768L144.858 85.1278V85.1202ZM144.858 71.1375L151.838 64.9884V77.2941L144.858 71.145V71.1375ZM151.219 77.7474H137.357L144.291 71.6436L151.226 77.7474H151.219ZM144.284 70.6389L137.364 64.5427H151.203L144.284 70.6389ZM143.71 71.1375L136.73 77.2866V64.9808L143.71 71.1299V71.1375ZM151.219 78.5028L144.284 84.6141L137.349 78.5028H151.226H151.219ZM143.71 85.1202L136.73 91.2693V78.9636L143.71 85.1127V85.1202ZM143.71 99.0878L136.73 105.237V92.9312L143.71 99.0803V99.0878ZM143.71 113.063L136.73 119.212V106.906L143.71 113.055V113.063ZM137.349 106.453H151.211L144.276 112.557L137.342 106.453H137.349ZM151.838 106.914V119.22L144.858 113.071L151.838 106.921V106.914ZM137.349 105.698L144.284 99.5864L151.219 105.698H137.342H137.349ZM144.284 113.569L151.219 119.673H137.357L144.291 113.569H144.284ZM144.858 99.0878L151.838 92.9388V105.244L144.858 99.0954V99.0878ZM135.974 64.5427V91.7301H132.197V64.5427H135.974ZM130.769 92.4855L123.51 98.5893L116.25 92.4855H130.769ZM116.235 91.7301L123.51 85.6112L130.785 91.7301H116.235ZM124.099 85.1202L131.442 78.9409V91.292L124.099 85.1127V85.1202ZM124.099 71.1375L131.442 64.9582V77.3092L124.099 71.1299V71.1375ZM130.785 77.7474H116.235L123.51 71.6285L130.785 77.7474ZM123.51 70.6464L116.25 64.5427H130.769L123.51 70.6464ZM122.921 71.1375L115.578 77.3168V64.9657L122.921 71.145V71.1375ZM130.792 78.5028L123.51 84.6216L116.228 78.5028H130.785H130.792ZM122.921 85.1202L115.578 91.2995V78.9485L122.921 85.1278V85.1202ZM122.921 99.0878L115.578 105.267V92.9161L122.921 99.0954V99.0878ZM122.921 113.063L115.578 119.242V106.891L122.921 113.071V113.063ZM116.235 106.453H130.785L123.51 112.572L116.235 106.453ZM131.442 106.891V119.242L124.099 113.063L131.442 106.884V106.891ZM116.228 105.698L123.51 99.5789L130.792 105.698H116.235H116.228ZM123.51 113.562L130.785 119.68H116.235L123.51 113.562ZM124.099 99.0878L131.442 92.9085V105.26L124.099 99.0803V99.0878ZM114.823 64.5427V91.7301H92.1601V64.5427H114.823ZM90.7324 92.4855L83.4729 98.5893L76.2133 92.4855H90.7324ZM76.1982 91.7301L83.4729 85.6112L90.7475 91.7301H76.1982ZM84.0621 85.1202L91.4047 78.9409V91.292L84.0621 85.1127V85.1202ZM84.0621 71.1375L91.4047 64.9582V77.3092L84.0621 71.1299V71.1375ZM90.7475 77.7474H76.1982L83.4729 71.6285L90.7475 77.7474ZM83.4729 70.6464L76.2133 64.5427H90.7324L83.4729 70.6464ZM82.8836 71.1375L75.541 77.3168V64.9657L82.8836 71.145V71.1375ZM90.7551 78.5028L83.4729 84.6216L76.1907 78.5028H90.7475H90.7551ZM82.8836 85.1202L75.541 91.2995V78.9485L82.8836 85.1278V85.1202ZM82.8836 99.0878L75.541 105.267V92.9161L82.8836 99.0954V99.0878ZM82.8836 113.063L75.541 119.242V106.891L82.8836 113.071V113.063ZM76.1982 106.453H90.7475L83.4729 112.572L76.1982 106.453ZM91.4047 106.891V119.242L84.0621 113.063L91.4047 106.884V106.891ZM76.1907 105.698L83.4729 99.5789L90.7551 105.698H76.1982H76.1907ZM83.4729 113.562L90.7475 119.68H76.1982L83.4729 113.562ZM84.0621 99.0878L91.4047 92.9085V105.26L84.0621 99.0803V99.0878ZM74.7856 64.5427V91.7301H70.2531V64.5427H74.7856ZM68.8254 92.4855L61.5658 98.5893L54.3063 92.4855H68.8254ZM54.2912 91.7301L61.5658 85.6112L68.8405 91.7301H54.2912ZM62.155 85.1202L69.4977 78.9409V91.292L62.155 85.1127V85.1202ZM62.155 71.1375L69.4977 64.9582V77.3092L62.155 71.1299V71.1375ZM68.8405 77.7474H54.2912L61.5658 71.6285L68.8405 77.7474ZM61.5658 70.6464L54.3063 64.5427H68.8254L61.5658 70.6464ZM60.9766 71.1375L53.634 77.3168V64.9657L60.9766 71.145V71.1375ZM68.848 78.5028L61.5658 84.6216L54.2836 78.5028H68.8405H68.848ZM60.9766 85.1202L53.634 91.2995V78.9485L60.9766 85.1278V85.1202ZM60.9766 99.0878L53.634 105.267V92.9161L60.9766 99.0954V99.0878ZM60.9766 113.063L53.634 119.242V106.891L60.9766 113.071V113.063ZM54.2912 106.453H68.8405L61.5658 112.572L54.2912 106.453ZM69.4977 106.891V119.242L62.155 113.063L69.4977 106.884V106.891ZM54.2836 105.698L61.5658 99.5789L68.848 105.698H54.2912H54.2836ZM61.5658 113.562L68.8405 119.68H54.2912L61.5658 113.562ZM62.155 99.0878L69.4977 92.9085V105.26L62.155 99.0803V99.0878ZM52.8785 64.5427V91.7301H18.1294V64.5427H52.8785ZM16.7017 92.4855L9.44216 98.5893L2.18262 92.4855H16.7017ZM2.16751 91.7301L9.44216 85.6112L16.7168 91.7301H2.16751ZM10.0314 85.1202L17.374 78.9409V91.292L10.0314 85.1127V85.1202ZM17.374 64.9657V77.3168L10.0314 71.1375L17.374 64.9582V64.9657ZM9.44216 70.6464L2.18262 64.5427H16.7017L9.44216 70.6464ZM16.7168 77.7474H2.16751L9.44216 71.6285L16.7168 77.7474ZM16.7244 78.5028L9.44216 84.6216L2.15996 78.5028H16.7168H16.7244ZM8.85294 71.1375L1.5103 77.3168V64.9657L8.85294 71.145V71.1375ZM8.85294 85.1202L1.5103 91.2995V78.9485L8.85294 85.1278V85.1202ZM8.85294 99.0878L1.5103 105.267V92.9161L8.85294 99.0954V99.0878ZM17.374 106.891V119.242L10.0314 113.063L17.374 106.884V106.891ZM9.44216 112.572L2.16751 106.453H16.7168L9.44216 112.572ZM2.15996 105.698L9.44216 99.5789L16.7244 105.698H2.15996ZM1.5103 106.891L8.85294 113.071L1.5103 119.25V106.899V106.891ZM9.44216 113.562L16.7168 119.68H2.16751L9.44216 113.562ZM10.0314 99.0878L17.374 92.9085V105.26L10.0314 99.0803V99.0878ZM18.1294 119.673V92.4855H52.8785V119.673H18.1294ZM70.2531 119.673V92.4855H74.7856V119.673H70.2531ZM92.1601 119.673V92.4855H114.823V119.673H92.1601ZM132.197 119.673V92.4855H135.974V119.673H132.197ZM152.593 119.673V92.4855H181.299V119.673H152.593ZM198.674 119.673V92.4855H203.206V119.673H198.674ZM219.825 119.673V92.4855H247.776V119.673H219.825ZM264.395 119.673V92.4855H271.194V119.673H264.395ZM288.568 119.673V92.4855H316.518V119.673H288.568ZM333.893 119.673V92.4855H361.843V119.673H333.893Z" fill="url(#paint0_radial_68_10)"/>
<path d="M400.634 9.94143C401.268 5.67333 399.327 1.75273 396.169 0.476074C394.591 3.20312 393.034 6.20212 391.758 9.26911C391.758 9.26911 390.066 5.99816 389.182 2.14554C387.769 3.53551 386.742 5.5298 386.394 7.83382C385.813 11.7393 387.392 15.3502 390.081 16.9139C390.647 21.3633 389.076 24.1206 387.46 25.7372L385.065 26.893C384.823 26.7645 384.574 26.6437 384.325 26.5228L383.72 23.267C383.66 22.9346 383.433 22.6626 383.116 22.5418C382.799 22.4209 382.444 22.4738 382.179 22.6702L379.528 24.6645C379.263 24.5889 378.991 24.5134 378.727 24.4378L377.496 21.3709C377.367 21.0611 377.095 20.8345 376.763 20.7741C376.43 20.7137 376.091 20.8345 375.871 21.0838L373.666 23.554C373.386 23.5314 373.114 23.5087 372.835 23.4936L371.029 20.7288C370.848 20.4493 370.531 20.2831 370.191 20.2906C369.851 20.2982 369.549 20.4795 369.375 20.7665L367.69 23.622C367.418 23.6522 367.139 23.6824 366.867 23.7202L364.548 21.3482C364.314 21.1065 363.966 21.0083 363.641 21.0838C363.309 21.1593 363.044 21.3935 362.931 21.7108L361.836 24.8382C361.571 24.9213 361.307 25.0044 361.05 25.0951L358.308 23.2216C358.029 23.0328 357.673 23.0026 357.364 23.1385C357.054 23.2745 356.835 23.5616 356.79 23.894L356.329 27.1649C356.08 27.3009 355.838 27.4368 355.596 27.5728L352.544 26.2735C352.235 26.1375 351.879 26.1753 351.6 26.3717C351.328 26.5681 351.169 26.8854 351.184 27.2253L351.373 30.5265C351.162 30.7078 350.95 30.8891 350.739 31.0704L347.49 30.3905C347.158 30.3225 346.818 30.4283 346.584 30.67C346.35 30.9118 346.259 31.2593 346.342 31.5841L347.173 34.7946C346.999 35.0061 346.833 35.2252 346.667 35.4443L345.224 35.4291C341.795 32.1053 342.316 28.9552 343.109 27.1498C345.798 25.79 347.634 22.4738 347.49 18.6665C347.4 16.3398 346.592 14.2473 345.345 12.7062C344.046 16.438 342.006 19.5125 342.006 19.5125C341.069 16.3247 339.846 13.1746 338.577 10.2889C335.298 11.2105 332.941 14.897 333.1 19.2104C333.258 23.3349 335.676 26.7117 338.811 27.5804C337.527 34.4396 342.867 38.7907 343.729 39.4404L343.902 39.7879C343.774 40.0296 343.653 40.2714 343.532 40.5206L340.261 41.1325C339.929 41.193 339.657 41.4196 339.528 41.7369C339.408 42.0466 339.453 42.4016 339.657 42.6736L341.613 45.2571C341.341 45.6348 341.085 46.005 340.85 46.3449L338.35 47.342C338.04 47.4705 337.814 47.7424 337.753 48.0748C337.693 48.4072 337.814 48.7396 338.063 48.9662C339.06 49.85 340.012 50.8245 341.122 51.5648C341.976 52.1314 342.913 52.5846 343.895 52.9472C346.033 54.1861 348.82 55.561 352.197 56.7243C351.804 61.1737 351.524 65.9328 352.076 65.9555C352.695 65.9857 354.471 61.491 355.815 57.8197C356.117 57.8952 356.442 57.9707 356.759 58.0387C356.858 61.8007 357.069 66.167 357.553 66.1368C358.081 66.099 359.184 61.8007 359.91 58.6884C360.325 58.7564 360.756 58.8244 361.186 58.8848C361.413 62.4352 361.73 66.2199 362.07 66.167C362.455 66.1066 363.06 62.2388 363.49 59.1643C365.885 59.3985 368.423 59.4816 371.12 59.3456C372.94 59.2549 374.64 58.9981 376.242 58.6128C376.672 61.7629 377.337 66.1066 377.737 66.167C378.107 66.2274 378.455 61.7025 378.682 57.9103C379.006 57.797 379.324 57.6761 379.633 57.5553C380.328 60.6222 381.65 66.0915 382.247 66.1292C382.821 66.167 383.018 59.897 383.078 55.916C383.139 55.8782 383.199 55.848 383.259 55.8103C384.589 59.5647 386.976 65.9781 387.716 65.9404C388.434 65.9026 387.747 57.9783 387.248 53.0152C393.767 47.5233 396.887 40.0145 397.975 37.0155C397.96 37.0231 397.937 37.0306 397.922 37.0457L398.602 35.4669C398.738 35.1572 398.7 34.8022 398.504 34.5302C398.307 34.2583 397.99 34.0996 397.65 34.1223L394.334 34.3187C394.153 34.1072 393.971 33.8957 393.79 33.6917L394.477 30.451C394.545 30.1186 394.44 29.7786 394.198 29.552C393.956 29.3178 393.609 29.2272 393.284 29.3178L390.066 30.1563C389.93 30.043 389.786 29.9373 389.65 29.8315C394.19 26.3113 394.387 20.4266 394.183 17.6316C397.333 17.0423 400.037 13.9829 400.634 9.95654V9.94143Z" fill="url(#paint1_radial_68_10)"/>
<path d="M375.689 36.617C377.765 35.9739 378.802 33.3655 378.004 30.791C377.207 28.2166 374.877 26.6509 372.801 27.294C370.725 27.9371 369.688 30.5455 370.485 33.12C371.283 35.6945 373.612 37.2601 375.689 36.617Z" fill="black"/>
<path d="M363.957 38.1392C366.097 37.7569 367.447 35.2962 366.973 32.6431C366.499 29.99 364.38 28.1491 362.241 28.5314C360.101 28.9137 358.75 31.3744 359.225 34.0275C359.699 36.6807 361.817 38.5215 363.957 38.1392Z" fill="black"/>
<path d="M373.175 32.4226C374.218 32.4226 375.063 31.5771 375.063 30.534C375.063 29.491 374.218 28.6455 373.175 28.6455C372.132 28.6455 371.286 29.491 371.286 30.534C371.286 31.5771 372.132 32.4226 373.175 32.4226Z" fill="white"/>
<path d="M361.843 33.9333C362.886 33.9333 363.732 33.0878 363.732 32.0448C363.732 31.0018 362.886 30.1562 361.843 30.1562C360.8 30.1562 359.955 31.0018 359.955 32.0448C359.955 33.0878 360.8 33.9333 361.843 33.9333Z" fill="white"/>
</g>
<defs>
<radialGradient id="paint0_radial_68_10" cx="0" cy="0" r="1" gradientUnits="userSpaceOnUse" gradientTransform="translate(189.609 87.9983) scale(135.491 135.491)">
<stop stop-color="#79DDF5"/>
<stop offset="0.34" stop-color="#DDD0FE"/>
<stop offset="0.67" stop-color="#E39BFF"/>
<stop offset="1" stop-color="#7C6EFF"/>
</radialGradient>
<radialGradient id="paint1_radial_68_10" cx="0" cy="0" r="1" gradientUnits="userSpaceOnUse" gradientTransform="translate(366.927 33.3215) scale(33.3365 33.3365)">
<stop stop-color="#79DDF5"/>
<stop offset="0.34" stop-color="#DDD0FE"/>
<stop offset="0.67" stop-color="#E39BFF"/>
<stop offset="1" stop-color="#7C6EFF"/>
</radialGradient>
<clipPath id="clip0_68_10">
<rect width="400" height="120.307" fill="white" transform="translate(0.754883 0.476074)"/>
</clipPath>
</defs>
</svg>
